<svg clip-rule="evenodd" fill-rule="evenodd" height="430" image-rendering="optimizeQuality" shape-rendering="geometricPrecision" text-rendering="geometricPrecision" viewBox="0 0 16891.33 2905.9" width="2500" xmlns="http://www.w3.org/2000/svg"><path d="m12320.48 1754.06v-1080.86h-285.26v-334.35h917.45v334.35h-284.93v1080.86zm899.5 0h350.23v-1415.21h-350.23zm719.03 0v-1415.21h346.88v1084.54h431.41v330.67zm1036.68 0v-1415.21h779.89v310.51h-441.65v245.37h416.22v303.56h-416.22v238.73h441.65v317.04zm1170.03-471.1c48.95 61.88 97.71 108.12 145.39 138.9 47.53 30.46 95.08 46.04 142.61 46.04 43.95 0 80.35-13.2 108.66-39.68 28.39-26.23 42.81-59.74 42.81-100.26 0-44.79-12.42-79.3-36.91-103.54-24.61-24.28-80.1-49.2-166.78-74.96-118.53-35.49-202.6-81.8-251.47-139.07-49.15-57.01-73.76-135.27-73.76-234.58 0-128.82 38.78-233.98 116.29-315.06 77.53-81.13 178.12-122.01 301.46-122.01 66.89 0 130.51 10.04 190.23 29.86 59.59 20.12 116.55 50.24 169.67 90.76l-103.29 263.97c-37.36-35.58-75.86-62.42-115.26-80.44-39.54-18.14-78.42-27.15-117.2-27.15-39.72 0-71.94 10.77-96.75 31.58-24.97 21.36-37.41 48.4-37.41 81.44 0 33.96 11.02 61.01 32.93 81.17 21.67 20.36 63.89 39.45 126.3 57.85 3.45 1.27 8.65 2.92 14.6 4.79 134.8 40.3 223.36 84.8 265.64 133.26 28.84 33.16 50.75 72.9 65.49 119.16 14.86 46.48 22.36 97.79 22.36 154.22 0 142.92-42.3 257.67-126.74 344.47-84.2 86.96-196.9 130.39-337.67 130.39-84.31 0-161.06-15.82-230.39-48.04-69.2-31.84-135.71-81.73-199.78-149.91l148.97-273.14z" fill="#e31e24"/><path d="m16774.66 2128.38v47.77h-13.2v-108.65h17.16c11.35 0 21.41 1.98 30.31 5.79 8.9 3.87 13.33 11.93 13.33 24.21 0 8.46-2.63 15.35-8.01 20.76-5.45 5.5-12.7 8.55-21.98 9.32l38.05 48.57h-16.2l-36.07-47.77h-3.4zm0-49.69v39.1h4.23c0 .13.05.13.05.13h.38c7.3 0 14.17-1.18 20.38-3.51 6.21-2.23 9.23-7.61 9.23-16.06 0-8.97-3.01-14.57-9.1-16.67-6.08-1.96-13.2-3-21.21-3h-3.96z" fill="#2b2a29"/><path d="m16795.81 2026.96c52.42 0 94.95 42.52 94.95 94.81 0 52.4-42.54 94.9-94.95 94.9-52.29 0-94.83-42.5-94.83-94.9 0-52.29 42.54-94.81 94.83-94.81zm0 10.93c-46.2 0-83.75 37.61-83.75 83.87 0 46.35 37.54 83.84 83.75 83.84 46.39 0 84-37.49 84-83.84 0-46.26-37.61-83.87-84-83.87zm-10748.59 735.87v-558.22l301.71 328.3c8.14 9.15 16.47 19.02 25.01 29.55 8.37 10.55 17.15 22.48 26.57 35.58v-372.25h71.05v557.98l-307.58-334.28c-8.17-9.06-16.16-18.6-23.79-28.61-7.7-9.99-14.97-20.51-21.94-31.49v373.43h-71.03zm1035.72-267.53c0-27.06-4.41-52.87-13.2-77.37-8.72-24.36-21.34-46.1-37.74-65.2-15.95-18.82-34.47-33.24-55.49-43.41-21.14-10.15-43.44-15.27-66.69-15.27-23.32 0-45.55 5.03-66.71 15.04-21.07 10.06-39.85 24.57-56.12 43.64-16.4 18.89-29.08 40.5-37.74 64.86-8.65 24.5-12.88 50.33-12.88 77.72 0 27.23 4.23 52.91 12.88 77.14 8.66 24.08 21.34 45.75 37.74 64.82 16.27 19.22 34.93 33.65 55.99 43.7 21.03 10.01 43.32 15.04 66.84 15.04 23.19 0 45.1-5.03 65.93-15.04 20.89-10.04 39.59-24.48 56.25-43.7 16.4-19.07 29.02-40.74 37.74-64.95 8.79-24.48 13.2-50 13.2-77.01zm80.35 0c0 38.29-6.34 74.3-18.91 108.27-12.75 34.04-31.13 64.29-55.36 91.03-24.28 26.75-51.96 47.02-82.66 61.24-30.69 14.17-62.91 21.27-96.55 21.27-34.09 0-66.71-7.1-97.84-21.4-30.88-14.44-58.25-34.71-82.02-61.12-24.28-26.73-42.66-56.87-55.16-90.68-12.42-33.71-18.83-69.85-18.83-108.61 0-38.4 6.41-74.56 18.83-108.45 12.5-34.13 30.88-64.55 55.16-91.41 24.28-26.73 51.65-46.97 82.28-60.92 30.62-13.89 63.24-20.85 97.59-20.85 34.09 0 66.44 6.96 97.13 20.85 30.44 13.95 57.99 34.18 82.08 60.92 24.23 27.08 42.61 57.81 55.36 91.86 12.57 34.16 18.91 70.18 18.91 107.99zm314.21-195.23v462.76h-77.01v-462.76h-126.23v-74.28h328.68v74.28h-125.45zm477.01 365.06c8.01 10.79 15.76 18.62 23.07 23.36 7.37 4.92 15.06 7.5 23.39 7.5 15.13 0 25.75-5.76 31.91-16.95 6.08-11.32 9.15-32.18 9.15-62.77v-390.49h76.44v418.86c0 45.37-8.9 78.88-26.66 100.27-17.74 21.43-45.3 32.18-82.91 32.18-20.69 0-39.52-4.52-56.12-13.6-16.78-9.04-32.62-23.18-47.55-42.15l49.27-56.21zm359.52-439.35h76.43v326.01c0 48.31 9.88 84.73 29.6 109.1 19.87 24.43 49.4 36.54 88.87 36.54 39.16 0 68.49-12.11 88.29-36.54 19.74-24.37 29.68-60.79 29.68-109.1v-326.01h77.01v334.11c0 72.54-16.15 126.95-48.57 163.15-32.42 36.02-81.37 54.05-146.66 54.05-65.35 0-114.04-18.04-146.21-53.91-32.24-36.02-48.44-90.5-48.44-163.3v-334.11zm565.12 429.52 61.37-32.22c5.96 23.9 16.67 42.17 32.37 54.7 15.44 12.57 35.31 18.96 59.52 18.96 23.07 0 41.19-7.32 54.78-21.69s20.25-33.71 20.25-57.99c0-31.4-23.07-59.64-69.38-84.16-6.54-3.71-11.61-6.54-14.93-8.15-52.49-28.86-87.27-55-104.76-78.39-17.31-23.28-26.03-51.96-26.03-85.6 0-43.81 13.2-79.26 39.48-106.47 26.14-27.13 60.66-40.63 103.27-40.63 35.05 0 64.28 7.68 87.78 22.83 23.72 15.37 39.92 37.23 49.02 65.77l-60.23 35.34c-9.48-16.95-19.92-29.39-31.2-37.09-11.53-7.79-24.61-11.84-39.28-11.84-20.69 0-37.29 6.27-49.53 18.53-12.22 12.06-18.31 28.55-18.31 49 0 32.38 26.97 62.55 80.59 90.23 4.05 2.38 7.32 4.12 9.75 5.18 46.89 24.57 79.11 48.48 96.55 71.76 17.56 23.39 26.21 52.51 26.21 87.58 0 50.8-14.17 91.3-42.48 121.11-28.31 29.93-66.56 45.04-114.82 45.04-40.43 0-73.48-10.53-99.31-31.55-25.88-21.09-42.74-51.05-50.67-90.25zm640.98-355.24v462.76h-77.03v-462.76h-126.16v-74.28h328.68v74.28h-125.5zm634.37 0v462.76h-77.01v-462.76h-126.23v-74.28h328.63v74.28zm281.91 462.76v-537.04h77.03v537.04zm284.04 0v-537.04h77.01v458.92h172.61v78.12zm408.27 0v-537.04h264.88v74.28h-188v134.46h188v76.68h-188v173.5h188v78.12zm422.24-107.52 61.39-32.22c5.88 23.9 16.65 42.17 32.22 54.7 15.57 12.57 35.49 18.96 59.64 18.96 23.14 0 41.26-7.32 54.8-21.69 13.51-14.37 20.23-33.71 20.23-57.99 0-31.4-23.19-59.64-69.51-84.16-6.54-3.71-11.41-6.54-14.87-8.15-52.4-28.86-87.2-55-104.61-78.39-17.36-23.28-26.08-51.96-26.08-85.6 0-43.81 13.06-79.26 39.47-106.47 26.08-27.13 60.55-40.63 103.22-40.63 34.93 0 64.4 7.68 87.91 22.83 23.65 15.37 39.85 37.23 48.95 65.77l-60.23 35.34c-9.61-16.95-19.92-29.39-31.33-37.09-11.41-7.79-24.46-11.84-39.21-11.84-20.63 0-37.21 6.27-49.46 18.53-12.17 12.06-18.4 28.55-18.4 49 0 32.38 27.04 62.55 80.6 90.23 4.1 2.38 7.37 4.12 9.68 5.18 47.09 24.57 79.26 48.48 96.68 71.76 17.44 23.39 26.21 52.51 26.21 87.58 0 50.8-14.09 91.3-42.48 121.11-28.31 29.93-66.56 45.04-114.8 45.04-40.43 0-73.5-10.53-99.46-31.55-25.81-21.09-42.61-51.05-50.55-90.25zm521.62 16.58 63.37 26.48-84.45 196.61-41.72-18.71 62.81-204.38zm451.19 90.94v-537.04h77.08v458.92h172.69v78.12zm409.61 0v-537.04h76.95v537.04zm284.04 0v-537.04h264.93v74.28h-187.98v133.6h187.98v76.74h-187.98v252.42zm444.59 0v-537.04h265.01v74.28h-187.98v134.46h187.98v76.68h-187.98v173.5h187.98v78.12zm422.18-107.52 61.57-32.22c5.83 23.9 16.53 42.17 32.17 54.7 15.44 12.57 35.49 18.96 59.72 18.96 22.99 0 41.14-7.32 54.78-21.69 13.46-14.37 20.25-33.71 20.25-57.99 0-31.4-23.19-59.64-69.53-84.16-6.54-3.71-11.59-6.54-15.06-8.15-52.29-28.86-87.14-55-104.43-78.39-17.49-23.28-26.21-51.96-26.21-85.6 0-43.81 13.26-79.26 39.41-106.47 26.26-27.13 60.73-40.63 103.34-40.63 34.98 0 64.39 7.68 87.91 22.83 23.57 15.37 39.79 37.23 48.95 65.77l-60.15 35.34c-9.63-16.95-20.07-29.39-31.4-37.09-11.46-7.79-24.41-11.84-39.21-11.84-20.56 0-37.23 6.27-49.4 18.53-12.24 12.06-18.38 28.55-18.38 49 0 32.38 26.97 62.55 80.6 90.23 4.03 2.38 7.3 4.12 9.61 5.18 47.02 24.57 79.19 48.48 96.62 71.76 17.54 23.39 26.26 52.51 26.26 87.58 0 50.8-14.09 91.3-42.35 121.11-28.44 29.93-66.82 45.04-115 45.04-40.43 0-73.5-10.53-99.31-31.55-25.83-21.09-42.74-51.05-50.75-90.25zm641.11-355.24v462.76h-77.03v-462.76h-126.08v-74.28h328.63v74.28zm382.7 462.76v-245.74l-159.92-291.3h81.11l99.57 182.19c2.43 4.79 5.32 10.79 9.04 18.42 3.45 7.41 6.97 15.8 10.62 24.5 3.14-8.46 6.34-16.71 9.68-24.17 3.32-7.61 6.85-14.51 10.44-20.85l102-180.08h77.15l-163.21 291.3v245.74h-76.5zm387.58 0v-537.04h77.01v458.92h172.61v78.12zm408.2 0v-537.04h264.93v74.28h-187.91v134.46h187.91v76.68h-187.91v173.5h187.91v78.12zm422.18-107.52 61.5-32.22c5.83 23.9 16.73 42.17 32.24 54.7 15.57 12.57 35.49 18.96 59.64 18.96 22.94 0 41.14-7.32 54.78-21.69 13.53-14.37 20.25-33.71 20.25-57.99 0-31.4-23.12-59.64-69.51-84.16-6.54-3.71-11.48-6.54-15-8.15-52.29-28.86-87.14-55-104.43-78.39-17.49-23.28-26.15-51.96-26.15-85.6 0-43.81 13.08-79.26 39.34-106.47 26.34-27.13 60.75-40.63 103.42-40.63 34.85 0 64.33 7.68 87.78 22.83 23.65 15.37 39.87 37.23 49.02 65.77l-60.23 35.34c-9.48-16.95-19.92-29.39-31.33-37.09-11.41-7.79-24.48-11.84-39.28-11.84-20.56 0-37.16 6.27-49.33 18.53-12.3 12.06-18.38 28.55-18.38 49 0 32.38 26.9 62.55 80.53 90.23 4.03 2.38 7.37 4.12 9.81 5.18 46.89 24.57 78.93 48.48 96.55 71.76 17.49 23.39 26.21 52.51 26.21 87.58 0 50.8-14.09 91.3-42.55 121.11-28.24 29.93-66.49 45.04-114.8 45.04-40.43 0-73.5-10.53-99.44-31.55-25.77-21.09-42.68-51.05-50.62-90.25zm479.37 66.89c0-13.44 4.1-24.85 12.24-34.51 8.34-9.57 18.4-14.24 30.31-14.24 11.99 0 21.9 4.67 30.19 14.24 8.26 9.66 12.35 21.07 12.35 34.51 0 13.17-4.09 24.5-12.35 33.64-8.28 9.08-18.2 13.82-30.19 13.82-11.91 0-21.98-4.74-30.31-13.82-8.14-9.14-12.24-20.47-12.24-33.64zm-16805.33000000001-975.67h1435.8v-1417.67h-1435.8z" fill="#2b2a29"/><path d="m299.73 1433.71h836.94v-769.84h-836.94z" fill="#e31e24"/><path d="m459.74 1273.37h361.27v-352.07h-361.27z" fill="#fefefe"/><g fill="#2b2a29"><path d="m11866.84 141.92v66.91h-18.65v-152.25h24.16c15.71.11 29.86 2.94 42.43 8.32 12.37 5.38 18.58 16.64 18.58 33.98 0 11.57-3.72 21.3-11.22 28.88-7.61 7.52-17.8 11.97-30.55 13.06l53.05 68.02h-22.76l-50.49-66.91h-4.54zm0-69.54v54.7h5.7c.13.13.25.24.25.24h.33c10.44 0 19.8-1.63 28.64-4.94 8.65-3.27 13-10.75 13-22.47 0-12.68-4.23-20.25-12.82-23.21-8.52-2.92-18.38-4.32-29.6-4.32z"/><path d="m11896.37 0c73.3 0 132.69 59.35 132.69 132.71 0 73.28-59.39 132.68-132.69 132.68-73.23 0-132.62-59.39-132.62-132.68 0-73.36 59.39-132.71 132.62-132.71zm0 15.33c-64.64 0-117.26 52.6-117.26 117.38 0 64.75 52.62 117.22 117.26 117.22 64.84 0 117.33-52.47 117.33-117.22 0-64.78-52.49-117.38-117.33-117.38zm-173.56 1733.7-902.33-714.34v714.34h-370.66v-1410.9l909.77 658.11v-658.11h363.22zm-3160.19-427.87c1.09 83.4-32.67 150.27-77.52 216.48-43.7 64.84-102.58 103.16-174.29 151.04-86.94 57.77-208.56 55.67-278.72 56.47-15.69 9.15-109.68.51-203.62-11.44-101.42-13.04-197.21-61.84-197.21-68.2l-2.25-346.66c68.44 75.66 259.25 129.97 381.23 126.59 51.84-1.27 98.88-25.3 123.92-44.97 57.03-44.95 31.86-137.96-23.37-157.9-34.34-12.26-90.61-58.06-164.68-78.22-232.77-62.9-341.25-195.84-332.53-399.17 9.93-235.62 200.04-407.83 429.1-424.43 144.92-10.53 286.02 11.79 369.95 53.49 42.94 21.45 75.99 50.29 75.99 51.65l-.25 276.54c16.02-20.61-318.13-92.88-404.69-62.51-76.55 26.59-121.09 87.02-52.67 161.03 17.89 19.58 55.43 32.44 102.02 47.46l72.07 22.96c157.3 50.35 275.19 124.03 329.21 233.88 27.17 55.18 27.17 127.3 28.31 195.95zm-1244.08 427.87-900.23-712.58v712.58h-369.75v-1410.9l907.57 659.76v-656.71h362.41zm-1582.48 0h-385.91v-547.92h-453.39v547.92h-384.36v-1410.9h384.36v546.64h453.39v-546.64h385.91zm-3106.89-529.29c0 109.86-2.45 211.99-28.99 284.95-31.4 85.49-94.88 141.16-167.84 188.36-85.96 55.61-178.79 62.75-301.93 62.75-22.76 0-72.65-6.41-113.53-21.54-44.95-5.49-181.19-103.31-174.9-103.31l2.05-291.27c36.02 17.07 132.28 99.66 240.32 96.02 65.86-2.38 116.26 3.29 140.56-27.15 21.78-27.33 22.07-89.98 21.78-154.72l-.11-915.7h382.59zm951.32-516.41c189.34 0 343.98 152.74 343.98 340.23 0 187.42-154.63 340.25-343.98 340.25-189.61 0-343.96-152.84-343.96-340.25 0-187.49 154.34-340.23 343.96-340.23zm0-365.21c-392.81 0-713.25 316.84-713.25 705.44 0 388.42 320.44 705.46 713.25 705.46 392.8 0 713.21-317.04 713.21-705.46 0-388.6-320.42-705.44-713.21-705.44zm5889.02 365.21c189.4 0 343.99 152.74 343.99 340.23 0 187.42-154.6 340.25-343.99 340.25-189.4 0-343.94-152.84-343.94-340.25 0-187.49 154.54-340.23 343.94-340.23zm0-365.21c-392.7 0-713.27 316.84-713.27 705.44 0 388.42 320.56 705.46 713.27 705.46 392.89 0 713.18-317.04 713.18-705.46 0-388.6-320.29-705.44-713.18-705.44z"/></g></svg>